<?xml version="1.0" encoding="utf-8"?>
<!-- Generator: Adobe Illustrator 22.1.0, SVG Export Plug-In . SVG Version: 6.00 Build 0)  -->
<svg version="1.1" id="Capa_1" xmlns="http://www.w3.org/2000/svg" xmlns:xlink="http://www.w3.org/1999/xlink" x="0px" y="0px"
	 viewBox="0 0 445 135" style="enable-background:new 0 0 445 135;" xml:space="preserve">
<style type="text/css">
	.st0{fill:#FFFFFF;}
	.st1{fill:none;}
	.st2{font-family:'OstrichSansInline';}
	.st3{font-size:84px;}
</style>
<g>
	<path class="st0" d="M45.4,100.3c0.1,0.1,0.2,0.2,0.3,0.3c0,0,0.1,0.1,0.1,0.1c0.8,0.6,1.6,1.2,2.5,1.8l-3.9,0.3
		c-1.1,0.1-2,1.1-1.9,2.2c0.1,1.1,1,1.9,2.1,1.9c0.1,0,0.1,0,0.2,0l10.2-0.9c4,1.7,8.3,2.9,12.8,3.3l-2.4,2.9
		c-0.7,0.9-0.6,2.2,0.3,2.9c0.9,0.7,2.2,0.6,2.9-0.3l3.5-4.2l3.5,4.2c0.4,0.5,1,0.8,1.6,0.8c0.5,0,0.9-0.2,1.3-0.5
		c0.9-0.7,1-2,0.3-2.9l-2.4-2.9c4.5-0.4,8.8-1.6,12.8-3.3l10.2,0.9c0.1,0,0.1,0,0.2,0c1.1,0,2-0.8,2.1-1.9c0.1-1.1-0.7-2.1-1.9-2.2
		l-3.9-0.3c0.9-0.6,1.7-1.2,2.5-1.8c0,0,0.1-0.1,0.1-0.1c0.1-0.1,0.2-0.2,0.3-0.3c1.3-1.1,2.6-2.2,3.8-3.4L112,94
		c1.1-0.3,1.7-1.5,1.4-2.6c-0.3-1.1-1.5-1.7-2.6-1.4l-3.8,1.1c1.6-2.4,3.1-4.9,4.2-7.6l8-6.4c0.9-0.7,1-2,0.3-2.9
		c-0.7-0.9-2-1-2.9-0.3l-3.1,2.4c0.6-2.8,1-5.7,1-8.6l5-8.8c0.6-1,0.2-2.3-0.8-2.8c-1-0.6-2.3-0.2-2.8,0.8l-1.9,3.4
		c-0.5-2.9-1.2-5.7-2.2-8.4l1.4-10.1c0.2-1.1-0.6-2.2-1.8-2.3c-1.1-0.2-2.2,0.6-2.3,1.8l-0.5,3.9c-0.3-0.5-0.6-0.9-0.8-1.4
		c-1.3-2-2.7-3.9-4.3-5.6l-2.4-9.9c-0.3-1.1-1.4-1.8-2.5-1.5c-1.1,0.3-1.8,1.4-1.5,2.5l0.9,3.8c-2.4-1.9-5.1-3.5-7.9-4.8
		c-1-0.5-2.3,0-2.8,1c-0.5,1,0,2.3,1,2.8c1,0.5,2,1,3,1.6L84,43.7l-3.1-4.8v-1.6c0-3.5-2.8-6.3-6.3-6.3s-6.3,2.8-6.3,6.3v8.3
		c0,0.8,0.1,1.5,0.4,2.2h-5.9L52.6,33.6c1-0.6,2-1.1,3-1.6c1-0.5,1.5-1.7,1-2.8c-0.5-1-1.7-1.5-2.8-1c-2.8,1.3-5.4,2.9-7.9,4.8
		l0.9-3.8c0.3-1.1-0.4-2.2-1.5-2.5c-1.1-0.3-2.2,0.4-2.5,1.5l-2.4,9.9c-1.6,1.7-3,3.6-4.3,5.6c-0.3,0.4-0.6,0.9-0.8,1.4l-0.5-3.9
		c-0.2-1.1-1.2-1.9-2.3-1.8c-1.1,0.2-1.9,1.2-1.8,2.3L32,51.9c-1,2.7-1.8,5.5-2.2,8.4l-1.9-3.4c-0.6-1-1.8-1.3-2.8-0.8
		c-1,0.6-1.3,1.8-0.8,2.8l5,8.8c0.1,3,0.4,5.8,1,8.6l-3.1-2.4c-0.9-0.7-2.2-0.6-2.9,0.3c-0.7,0.9-0.6,2.2,0.3,2.9l8,6.4
		c1.1,2.7,2.6,5.2,4.2,7.6L33,90c-1.1-0.3-2.3,0.3-2.6,1.4c-0.3,1.1,0.3,2.3,1.4,2.6l9.8,2.9C42.8,98.1,44,99.3,45.4,100.3z
		 M56,75.8c0.3,0.7,1,1.2,1.9,1.2C59,77,60,76,60,74.9V53.7c0-0.9,0.6-1.6,1.4-1.8c0.1,0,0.2,0,0.3,0c0.2,0,0.4,0,0.5-0.1h12.3h2.8
		c1,0,1.9,0.8,1.9,1.9v1.1H65.8c-0.3-0.7-1-1.2-1.9-1.2c-1.1,0-2.1,0.9-2.1,2.1v1.2c0,1.1,0.9,2.1,2.1,2.1h12.5v17.9
		c0,1-0.8,1.9-1.9,1.9H60.4c-0.3-0.1-0.7-0.1-1,0h-3.1c-1,0-1.9-0.8-1.9-1.9v-1.1H56z M84.3,51.9c5.7,9.3,6.6,20.4,3,30l-6.7-9.4V59
		h0.7c1.1,0,2.1-0.9,2.1-2.1v-3.1c0-0.6-0.1-1.3-0.3-1.9L84.3,51.9L84.3,51.9z M60.9,82.9h13.6c2.5,0,4.7-1.6,5.6-3.8l5.2,7.2
		c-1.8,3.4-4.3,6.6-7.3,9.4c-0.8,0.8-0.9,2.1-0.1,2.9c0.4,0.4,1,0.7,1.5,0.7c0.5,0,1-0.2,1.4-0.5c2.8-2.6,5.2-5.5,7.2-8.8l6.1,8.4
		c-6.3,4.4-13.9,7-22.2,7s-15.9-2.6-22.2-7L60.9,82.9z M94.7,35.9c9.7,7.2,15.7,18.7,15.7,31c0,0.1,0,0.1,0,0.2c0,0,0,0.1,0,0.1
		c-0.1,11.4-5.1,21.6-13.1,28.6l-7.2-10c1.5-3.4,2.6-7,3.1-10.8c1.2-9.2-0.9-18.6-6-26.4c0,0-0.8-1.2-0.8-1.2L94.7,35.9z M72.4,45.6
		v-8.3c0-1.2,1-2.2,2.2-2.2c1.2,0,2.2,1,2.2,2.2v2.2c0,0.4,0.1,0.8,0.3,1.1l4.6,7.1h-4.3h-2.8C73.4,47.7,72.4,46.8,72.4,45.6z
		 M58.4,48.8c-1.6,1.1-2.6,2.9-2.6,4.9v17.9h-3.5c-1.1,0-2.1,0.9-2.1,2.1v3.1c0,3.2,2.5,5.8,5.6,6l-9.4,13c-8-7-13-17.2-13.1-28.6
		c0,0,0-0.1,0-0.1c0-0.1,0-0.1,0-0.2c0-12.3,6-23.9,15.7-31L58.4,48.8z"/>
	<path class="st0" d="M117.9,21C105.6,8.7,89.3,2,71.9,2s-33.7,6.8-46,19c-12.3,12.3-19,28.6-19,46s6.8,33.7,19,46
		c12.3,12.3,28.6,19,46,19s33.7-6.8,46-19c12.3-12.3,19-28.6,19-46S130.2,33.3,117.9,21z M71.9,127.8c-33.6,0-60.9-27.3-60.9-60.9
		S38.4,6.1,71.9,6.1s60.9,27.3,60.9,60.9S105.5,127.8,71.9,127.8z"/>
	<path class="st0" d="M71.9,8.9c-14.8,0-28.8,5.5-39.6,15.6C21.6,34.5,15.1,48.1,14,62.7c-0.1,1.1,0.8,2.1,1.9,2.2
		C17,65,18,64.1,18.1,63C20.2,35,43.8,13,71.9,13c29.7,0,53.9,24.2,53.9,53.9s-24.2,53.9-53.9,53.9c-12.9,0-25.4-4.6-35.2-13.1
		c-0.9-0.7-2.2-0.7-2.9,0.2c-0.7,0.9-0.7,2.2,0.2,2.9C44.5,120,58,125,71.9,125C103.9,125,130,99,130,67S103.9,8.9,71.9,8.9z"/>
	<path class="st0" d="M18.1,70.9C18,69.8,17,69,15.9,69c-1.1,0.1-2,1.1-1.9,2.2c0.9,12.5,5.7,24.1,13.9,33.6c0.4,0.5,1,0.7,1.6,0.7
		c0.5,0,1-0.2,1.4-0.5c0.9-0.7,1-2.1,0.2-2.9C23.4,93.3,19,82.5,18.1,70.9z"/>
</g>
<rect x="141.3" y="38.8" class="st1" width="297.3" height="57.3"/>
<text transform="matrix(1 0 0 1 154.0907 95.4434)" class="st0 st2 st3">Ahorro gt</text>
</svg>
