<?xml version="1.0" encoding="iso-8859-1"?>
<!-- Generator: Adobe Illustrator 17.1.0, SVG Export Plug-In . SVG Version: 6.00 Build 0)  -->
<!DOCTYPE svg PUBLIC "-//W3C//DTD SVG 1.1//EN" "http://www.w3.org/Graphics/SVG/1.1/DTD/svg11.dtd">
<svg xmlns="http://www.w3.org/2000/svg" xmlns:xlink="http://www.w3.org/1999/xlink" version="1.1" id="Capa_1" x="0px" y="0px" viewBox="0 0 470 470" style="enable-background:new 0 0 470 470;" xml:space="preserve" width="512px" height="512px">
<g>
	<path d="M139.036,355.633c0.316,0.332,0.663,0.641,1.049,0.918c0.164,0.118,0.339,0.205,0.508,0.308   c2.92,2.267,5.922,4.431,9.003,6.488l-14.204,1.209c-4.127,0.352-7.188,3.981-6.837,8.109c0.333,3.91,3.61,6.863,7.465,6.863   c0.213,0,0.428-0.009,0.645-0.027l36.749-3.129c14.413,6.303,29.964,10.471,46.257,12.086l-8.811,10.626   c-2.644,3.188-2.202,7.917,0.986,10.561c3.188,2.645,7.917,2.204,10.561-0.986L235,393.47l12.595,15.189   c1.483,1.789,3.622,2.713,5.777,2.713c1.687,0,3.384-0.566,4.783-1.727c3.188-2.644,3.63-7.372,0.986-10.561l-8.811-10.626   c16.293-1.615,31.844-5.783,46.257-12.086l36.749,3.129c0.217,0.019,0.431,0.027,0.645,0.027c3.854,0,7.132-2.953,7.465-6.863   c0.351-4.128-2.709-7.758-6.837-8.109l-14.204-1.209c3.081-2.057,6.083-4.221,9.002-6.488c0.17-0.103,0.345-0.19,0.509-0.308   c0.385-0.277,0.733-0.587,1.049-0.918c4.772-3.804,9.314-7.882,13.601-12.215l35.343-10.665c3.966-1.197,6.21-5.382,5.014-9.348   c-1.196-3.965-5.381-6.208-9.347-5.014l-13.666,4.124c5.945-8.594,11.048-17.811,15.172-27.543l28.753-23.002   c3.235-2.588,3.759-7.308,1.171-10.542c-2.588-3.234-7.309-3.759-10.542-1.171l-11.049,8.839   c2.276-10.045,3.566-20.458,3.768-31.134l18.193-31.953c2.049-3.6,0.793-8.179-2.807-10.229c-3.598-2.048-8.179-0.792-10.229,2.807   l-7.019,12.327c-1.632-10.39-4.301-20.561-8.001-30.366l4.955-36.453c0.558-4.104-2.317-7.884-6.421-8.441   c-4.104-0.563-7.884,2.317-8.442,6.422l-1.902,13.995c-0.989-1.656-2.006-3.298-3.06-4.921   c-4.681-7.212-9.939-13.973-15.686-20.254l-8.813-35.679c-0.993-4.021-5.059-6.476-9.08-5.482c-4.021,0.993-6.476,5.059-5.483,9.08   l3.4,13.766c-8.807-6.752-18.347-12.576-28.497-17.325c-3.752-1.758-8.216-0.137-9.972,3.614c-1.756,3.752-0.137,8.217,3.614,9.972   c3.734,1.747,7.353,3.668,10.877,5.718l-26.17,36.404l-11.207-17.367v-5.893c0-12.575-10.23-22.806-22.805-22.806   s-22.805,10.23-22.805,22.806v30.003c0,2.74,0.487,5.369,1.377,7.805h-21.386l-36.629-50.952c3.525-2.05,7.145-3.972,10.879-5.719   c3.751-1.755,5.37-6.22,3.614-9.972c-1.755-3.752-6.219-5.371-9.972-3.614c-10.151,4.75-19.691,10.573-28.498,17.326l3.4-13.765   c0.993-4.021-1.461-8.087-5.483-9.08c-4.021-0.995-8.086,1.461-9.08,5.482l-8.813,35.678c-5.746,6.281-11.004,13.042-15.685,20.253   c-1.054,1.623-2.072,3.265-3.06,4.922l-1.902-13.995c-0.558-4.104-4.332-6.98-8.442-6.422c-4.104,0.558-6.979,4.338-6.421,8.441   l4.955,36.453c-3.699,9.805-6.368,19.977-8,30.367l-7.019-12.327c-2.049-3.6-6.628-4.856-10.229-2.807   c-3.6,2.05-4.856,6.629-2.807,10.229l18.193,31.953c0.202,10.676,1.492,21.089,3.768,31.134l-11.049-8.839   c-3.235-2.588-7.955-2.063-10.542,1.171c-2.587,3.234-2.063,7.954,1.171,10.542l28.753,23.002   c4.123,9.732,9.227,18.949,15.172,27.543l-13.666-4.124c-3.964-1.196-8.15,1.048-9.347,5.014c-1.197,3.966,1.048,8.15,5.014,9.348   l35.343,10.665C129.722,347.751,134.264,351.83,139.036,355.633z M177.577,266.929c1.209,2.521,3.777,4.266,6.759,4.266   c4.142,0,7.5-3.357,7.5-7.5v-76.461c0-3.181,2.223-5.846,5.195-6.54c0.38,0.059,0.762,0.099,1.147,0.099   c0.659,0,1.319-0.104,1.965-0.28h44.488h10c3.706,0,6.72,3.015,6.72,6.721v3.877h-48.529c-1.208-2.523-3.785-4.267-6.769-4.267   c-4.142,0-7.5,3.357-7.5,7.5v4.267c0,4.143,3.358,7.5,7.5,7.5h45.298v64.694c0,3.706-3.015,6.721-6.72,6.721h-51.189   c-1.176-0.287-2.394-0.281-3.552,0h-11.334c-3.706,0-6.72-3.015-6.72-6.721v-3.876H177.577z M279.801,180.513   c20.559,33.712,23.722,73.622,10.893,108.631l-24.343-33.862V206.11h2.5c4.142,0,7.5-3.357,7.5-7.5v-11.377   c0-2.345-0.378-4.603-1.069-6.721H279.801z M195.349,292.525h49.281c9.141,0,16.976-5.68,20.176-13.693l18.799,26.15   c-6.627,12.415-15.451,23.907-26.409,33.894c-3.062,2.79-3.282,7.533-0.492,10.595c1.48,1.624,3.509,2.448,5.545,2.448   c1.803,0,3.612-0.646,5.05-1.957c10.185-9.281,18.872-19.979,25.864-31.683l21.942,30.522   c-22.67,16.004-50.308,25.419-80.106,25.419s-57.437-9.415-80.106-25.419L195.349,292.525z M317.363,122.802   C352.551,148.747,374.22,190.389,374.22,235c0,0.209-0.007,0.416-0.008,0.625c-0.005,0.13-0.006,0.26-0.005,0.391   c-0.296,41.175-18.556,78.153-47.318,103.477l-25.976-36.133c5.496-12.33,9.247-25.482,11.038-39.067   c4.392-33.312-3.317-67.17-21.705-95.345c-0.025-0.039-2.865-4.439-2.865-4.439L317.363,122.802z M236.825,157.708v-30.003   c0-4.304,3.501-7.806,7.805-7.806s7.805,3.502,7.805,7.806v8.103c0,1.442,0.416,2.854,1.198,4.066l16.544,25.639H254.63h-10   C240.327,165.513,236.825,162.012,236.825,157.708z M186.15,169.419c-5.625,3.93-9.315,10.447-9.315,17.814v64.695h-12.5   c-4.142,0-7.5,3.357-7.5,7.5v11.376c0,11.427,8.872,20.815,20.089,21.653l-33.813,47.035   c-28.763-25.324-47.022-62.302-47.318-103.477c0.001-0.13,0-0.26-0.005-0.391c-0.001-0.209-0.008-0.416-0.008-0.625   c0-44.611,21.669-86.253,56.857-112.198L186.15,169.419z" fill="#006DF0"/>
	<path d="M401.17,68.83C356.785,24.444,297.771,0,235,0S113.215,24.444,68.83,68.83C24.444,113.216,0,172.229,0,235   s24.444,121.784,68.83,166.17C113.215,445.556,172.229,470,235,470s121.785-24.444,166.17-68.83   C445.556,356.784,470,297.771,470,235S445.556,113.216,401.17,68.83z M235,455c-121.309,0-220-98.691-220-220S113.691,15,235,15   s220,98.691,220,220S356.309,455,235,455z" fill="#006DF0"/>
	<path d="M235,25c-53.381,0-104.258,20.05-143.259,56.455c-38.805,36.224-62.304,85.231-66.167,137.997   c-0.303,4.131,2.801,7.726,6.932,8.028c4.132,0.304,7.726-2.802,8.028-6.933C47.947,119.306,133.367,40,235,40   c107.523,0,195,87.477,195,195s-87.477,195-195,195c-46.735,0-91.941-16.79-127.29-47.278c-3.137-2.704-7.873-2.355-10.578,0.781   c-2.706,3.137-2.356,7.872,0.781,10.578C135.984,426.916,184.669,445,235,445c115.794,0,210-94.206,210-210S350.794,25,235,25z" fill="#006DF0"/>
	<path d="M40.534,249.452c-0.303-4.131-3.901-7.217-8.028-6.933c-4.131,0.303-7.235,3.897-6.932,8.028   c3.307,45.157,20.716,87.185,50.345,121.539c1.483,1.72,3.577,2.602,5.683,2.602c1.735,0,3.478-0.599,4.895-1.82   c3.137-2.705,3.486-7.441,0.781-10.578C59.768,330.393,43.604,291.374,40.534,249.452z" fill="#006DF0"/>
</g>
<g>
</g>
<g>
</g>
<g>
</g>
<g>
</g>
<g>
</g>
<g>
</g>
<g>
</g>
<g>
</g>
<g>
</g>
<g>
</g>
<g>
</g>
<g>
</g>
<g>
</g>
<g>
</g>
<g>
</g>
</svg>
