<?xml version="1.0" encoding="iso-8859-1"?>
<!-- Generator: Adobe Illustrator 19.0.0, SVG Export Plug-In . SVG Version: 6.00 Build 0)  -->
<svg version="1.1" id="Layer_1" xmlns="http://www.w3.org/2000/svg" xmlns:xlink="http://www.w3.org/1999/xlink" x="0px" y="0px"
	 viewBox="0 0 512 512" style="enable-background:new 0 0 512 512;" xml:space="preserve">
<circle style="fill:#BCB6B8;" cx="256" cy="256" r="256"/>
<circle style="fill:#EBEAEA;" cx="256" cy="256" r="227.868"/>
<path style="fill:#A8A2A2;" d="M449.553,285.741c-2.912-3.64-8.224-4.231-11.863-1.318l-12.433,9.946
	c2.561-11.303,4.013-23.021,4.24-35.035l20.472-35.956c2.306-4.051,0.892-9.204-3.159-11.51c-4.049-2.306-9.204-0.892-11.51,3.159
	l-7.898,13.871c-1.836-11.692-4.84-23.137-9.002-34.17l5.576-41.02c0.628-4.618-2.607-8.872-7.225-9.5
	c-4.618-0.636-8.872,2.607-9.5,7.225l-2.141,15.749c-1.113-1.863-2.257-3.711-3.443-5.537c-5.267-8.115-11.184-15.723-17.651-22.79
	l-9.917-40.148c-1.117-4.525-5.689-7.285-10.217-6.169c-4.525,1.119-7.287,5.693-6.169,10.217l3.826,15.489
	c-9.91-7.598-20.645-14.15-32.067-19.495c-4.222-1.975-9.245-0.154-11.221,4.067c-1.976,4.222-0.154,9.245,4.067,11.221
	c54.881,25.68,90.343,81.404,90.343,141.961c0,86.383-70.278,156.661-156.661,156.661S99.339,342.383,99.339,256
	c0-60.559,35.462-116.283,90.344-141.962c4.221-1.975,6.043-6.999,4.067-11.221c-1.975-4.221-6.998-6.043-11.221-4.067
	c-11.423,5.345-22.158,11.898-32.068,19.495l3.826-15.488c1.117-4.525-1.644-9.099-6.169-10.217
	c-4.528-1.115-9.1,1.644-10.217,6.169l-9.917,40.146c-6.466,7.067-12.383,14.675-17.65,22.79c-1.186,1.826-2.332,3.674-3.443,5.539
	l-2.141-15.749c-0.628-4.618-4.88-7.861-9.5-7.225c-4.618,0.628-7.853,4.88-7.225,9.5l5.576,41.02
	c-4.162,11.033-7.166,22.478-9.002,34.17l-7.898-13.871c-2.306-4.051-7.462-5.464-11.51-3.159c-4.051,2.306-5.464,7.459-3.159,11.51
	l20.472,35.956c0.227,12.013,1.679,23.732,4.24,35.035l-12.433-9.946c-3.639-2.912-8.95-2.321-11.863,1.318
	c-2.911,3.639-2.321,8.95,1.318,11.863l32.355,25.885c4.64,10.95,10.383,21.323,17.073,30.992l-15.379-4.641
	c-4.463-1.345-9.171,1.179-10.518,5.642c-1.347,4.462,1.179,9.171,5.642,10.518l39.768,12c8.269,8.355,17.378,15.876,27.189,22.426
	l-15.983,1.36c-4.644,0.396-8.088,4.481-7.693,9.125c0.375,4.401,4.063,7.724,8.4,7.724c0.24,0,0.482-0.01,0.726-0.03l41.353-3.521
	c21.24,9.289,44.678,14.455,69.302,14.455c24.624,0,48.063-5.167,69.302-14.455l41.353,3.521c0.243,0.02,0.485,0.03,0.726,0.03
	c4.337,0,8.025-3.324,8.4-7.724c0.395-4.644-3.048-8.73-7.694-9.125l-15.983-1.36c9.811-6.55,18.919-14.07,27.189-22.426l39.768-12
	c4.463-1.347,6.988-6.055,5.642-10.518c-1.346-4.463-6.055-6.987-10.518-5.642l-15.379,4.641
	c6.689-9.671,12.432-20.042,17.073-30.992l32.355-25.885C451.874,294.691,452.464,289.381,449.553,285.741z"/>
<g>
	<path style="fill:#BCB6B8;" d="M154.113,394.366c-1.706,0-3.428-0.515-4.92-1.588c-3.784-2.721-4.646-7.994-1.926-11.779
		l192.582-267.885c2.72-3.785,7.994-4.647,11.779-1.926c3.784,2.721,4.646,7.994,1.926,11.779L160.973,390.853
		C159.324,393.146,156.737,394.366,154.113,394.366z"/>
	<path style="fill:#BCB6B8;" d="M357.887,394.366c-2.625,0-5.211-1.22-6.86-3.514L158.445,122.968
		c-2.72-3.784-1.858-9.058,1.926-11.779c3.784-2.72,9.06-1.858,11.779,1.926L364.733,381c2.72,3.784,1.858,9.058-1.926,11.779
		C361.316,393.851,359.593,394.366,357.887,394.366z"/>
</g>
<path style="fill:#8C8484;" d="M176.488,280.241v12.794c0,8.845,7.157,16.013,16.001,16.013h6.504l9.853-28.807H176.488
	L176.488,280.241z"/>
<path style="fill:#A8A2A2;" d="M222.023,195.812h-7.028c-8.845,0-16.001,7.168-16.001,16.001v97.234h67.843
	c8.833,0,16.001-7.168,16.001-16.013v-77.984L222.023,195.812z"/>
<g>
	<path style="fill:#8C8484;" d="M292.499,143.02v-15.071c0-9.496-7.726-17.222-17.222-17.222s-17.222,7.726-17.222,17.222v50.641
		c0,9.496,7.726,17.222,17.222,17.222h31.137c35.353,57.972,24.998,132.24-25.436,178.202c-3.446,3.14-3.693,8.478-0.554,11.922
		c1.665,1.827,3.949,2.755,6.24,2.755c2.029,0,4.065-0.727,5.683-2.202c27.51-25.07,45.354-59.308,50.245-96.402
		c4.942-37.484-4.044-75.382-24.422-107.285C318.168,182.801,292.499,143.02,292.499,143.02z"/>
	<path style="fill:#8C8484;" d="M276.674,454.467c-2.425,0-4.832-1.04-6.501-3.053L256,434.322l-14.173,17.092
		c-2.976,3.59-8.296,4.085-11.884,1.11c-3.587-2.975-4.085-8.296-1.11-11.884l20.669-24.927c1.604-1.934,3.985-3.053,6.496-3.053
		s4.894,1.118,6.496,3.053l20.669,24.927c2.975,3.587,2.478,8.909-1.109,11.884C280.481,453.83,278.572,454.467,276.674,454.467z"/>
</g>
<path style="fill:#D2CFCE;" d="M292.691,211.814v12.806h-70.667v-28.807h54.666C285.523,195.812,292.691,202.98,292.691,211.814z"/>
<g>
</g>
<g>
</g>
<g>
</g>
<g>
</g>
<g>
</g>
<g>
</g>
<g>
</g>
<g>
</g>
<g>
</g>
<g>
</g>
<g>
</g>
<g>
</g>
<g>
</g>
<g>
</g>
<g>
</g>
</svg>
